<?xml version="1.0" standalone="no"?>
<!DOCTYPE svg PUBLIC "-//W3C//DTD SVG 20010904//EN"
 "http://www.w3.org/TR/2001/REC-SVG-20010904/DTD/svg10.dtd">
<svg version="1.0" xmlns="http://www.w3.org/2000/svg"
 width="300.000000pt" height="299.000000pt" viewBox="0 0 300.000000 299.000000"
 preserveAspectRatio="xMidYMid meet">
<metadata>
Created by potrace 1.10, written by Peter Selinger 2001-2011
</metadata>
<g transform="translate(0.000000,299.000000) scale(0.100000,-0.100000)"
fill="#000000" stroke="none">
<path d="M910 2968 c0 -16 5 -28 10 -28 13 0 13 20 0 40 -8 12 -10 9 -10 -12z"/>
<path d="M2166 2982 c-15 -24 -37 -106 -33 -125 3 -19 4 -18 11 8 4 17 14 50
21 75 13 42 14 62 1 42z"/>
<path d="M2485 2957 c15 -21 30 -35 33 -32 3 3 -9 20 -27 38 l-34 32 28 -38z"/>
<path d="M2060 2956 c-17 -19 -29 -24 -51 -19 -18 3 -29 1 -29 -5 0 -6 7 -9
15 -6 11 4 15 -1 15 -17 1 -21 2 -22 13 -9 7 8 24 21 40 27 16 8 27 20 27 33
0 25 -2 25 -30 -4z"/>
<path d="M234 2955 c11 -8 22 -12 25 -9 6 6 -19 24 -34 24 -5 -1 -1 -7 9 -15z"/>
<path d="M2250 2924 c0 -10 5 -26 10 -34 8 -11 9 -7 4 15 -8 37 -14 45 -14 19z"/>
<path d="M2910 2934 c0 -5 7 -19 15 -30 8 -10 15 -14 15 -8 0 5 -7 19 -15 30
-8 10 -15 14 -15 8z"/>
<path d="M150 2871 c0 -3 11 -11 25 -18 20 -9 25 -8 25 2 0 7 -11 15 -25 17
-14 3 -25 2 -25 -1z"/>
<path d="M490 2870 c-8 -5 -11 -12 -7 -17 5 -4 11 -3 15 3 4 6 14 14 22 17 13
5 13 5 0 6 -8 0 -22 -3 -30 -9z"/>
<path d="M670 2865 c-14 -16 -3 -20 19 -6 8 5 9 11 3 15 -5 3 -15 -1 -22 -9z"/>
<path d="M992 2873 c-6 -2 -10 -9 -6 -14 8 -14 21 -11 28 6 6 15 1 17 -22 8z"/>
<path d="M100 2855 c-7 -8 -19 -15 -26 -15 -8 0 -14 -4 -14 -10 0 -18 22 -11
46 15 13 14 19 25 15 25 -5 0 -14 -7 -21 -15z"/>
<path d="M2661 2849 c-13 -5 -22 -12 -19 -14 6 -6 58 12 58 20 0 7 -11 5 -39
-6z"/>
<path d="M917 2826 c-20 -11 -45 -32 -54 -46 -17 -25 -17 -24 21 4 41 31 44
31 48 -5 3 -22 0 -24 -47 -25 -27 -1 -58 -5 -68 -9 -9 -4 -28 -4 -41 -1 -14 3
-28 1 -32 -5 -4 -7 -22 -9 -50 -4 -53 8 -108 -18 -99 -46 4 -11 -3 -23 -17
-33 -12 -9 -18 -16 -12 -16 17 0 54 31 54 45 0 23 38 38 68 27 18 -6 33 -5 45
2 16 9 22 7 34 -11 20 -30 35 -29 23 1 -9 23 -8 24 66 31 42 4 87 13 101 20
14 7 32 11 41 8 10 -4 13 -1 10 8 -3 8 -16 14 -31 14 -36 1 -42 10 -29 40 6
14 11 25 9 24 -1 -1 -19 -11 -40 -23z"/>
<path d="M2561 2810 c15 -45 24 -54 15 -15 -4 17 -12 34 -17 40 -5 5 -4 -6 2
-25z"/>
<path d="M2290 2809 c0 -8 40 -89 44 -89 7 0 -21 71 -32 82 -7 7 -12 10 -12 7z"/>
<path d="M780 2778 c0 -19 2 -20 10 -8 13 19 13 30 0 30 -5 0 -10 -10 -10 -22z"/>
<path d="M527 2749 c-8 -29 -7 -30 29 -20 16 5 21 10 12 10 -9 1 -21 8 -26 17
-8 14 -10 13 -15 -7z"/>
<path d="M2204 2754 c9 -8 16 -19 16 -24 0 -11 40 -34 47 -27 6 7 -57 67 -69
67 -5 0 -2 -7 6 -16z"/>
<path d="M373 2753 c-15 -5 -18 -33 -4 -33 5 0 16 -3 25 -6 12 -5 16 0 16 20
0 25 -10 30 -37 19z"/>
<path d="M2470 2747 c0 -1 -4 -17 -9 -35 -5 -17 -6 -32 -1 -32 5 0 10 10 12
23 2 15 9 21 21 19 21 -4 23 14 1 22 -17 6 -24 8 -24 3z"/>
<path d="M108 2654 c-40 -37 -75 -69 -77 -71 -2 -2 0 -3 5 -3 5 0 34 24 65 54
30 29 64 58 75 64 10 6 16 14 12 17 -4 4 -40 -24 -80 -61z"/>
<path d="M2601 2683 c1 -21 -3 -48 -9 -60 -15 -27 -15 -43 -2 -43 6 0 10 9 10
20 0 14 7 20 22 20 20 0 20 1 4 19 -13 14 -16 28 -11 50 4 21 3 31 -5 31 -7 0
-11 -14 -9 -37z"/>
<path d="M800 2654 c0 -8 -4 -13 -9 -10 -5 3 -11 -13 -14 -37 -10 -76 -27
-137 -38 -137 -5 0 -9 -7 -9 -16 0 -31 44 10 47 42 1 16 12 58 23 93 23 72 24
81 10 81 -5 0 -10 -7 -10 -16z"/>
<path d="M2438 2664 c-8 -14 29 -94 44 -94 9 0 9 3 1 11 -13 13 -5 47 12 51
11 2 10 7 -2 23 -12 15 -14 16 -10 3 8 -24 -16 -29 -29 -5 -6 11 -13 16 -16
11z"/>
<path d="M930 2633 c0 -18 20 -66 25 -61 3 3 -1 20 -9 39 -9 19 -15 29 -16 22z"/>
<path d="M639 2607 c-1 -15 -2 -32 -3 -39 -1 -6 6 -13 14 -16 12 -3 12 -2 3 8
-9 10 -9 17 0 31 9 14 9 21 -1 31 -9 9 -12 6 -13 -15z"/>
<path d="M2519 2559 c17 -30 37 -29 21 0 -5 10 -7 21 -4 24 4 3 -3 5 -13 4
-19 -1 -19 -3 -4 -28z"/>
<path d="M2417 2526 c-31 -22 -38 -23 -61 -11 -22 12 -26 11 -31 -6 -4 -10
-10 -19 -15 -19 -11 0 -34 -69 -26 -77 5 -5 10 5 21 44 2 6 16 20 31 29 25 17
27 17 44 -6 l18 -24 16 37 c10 26 21 37 35 37 12 0 21 5 21 10 0 16 -14 12
-53 -14z"/>
<path d="M2561 2527 c-1 -5 8 -22 19 -37 11 -16 19 -34 18 -41 -2 -7 5 -15 15
-17 21 -4 22 11 2 28 -8 7 -15 21 -15 31 0 11 -6 19 -14 19 -8 0 -17 6 -19 13
-3 6 -6 8 -6 4z"/>
<path d="M1358 2468 c17 -17 24 -20 34 -10 9 9 8 12 -5 12 -9 0 -17 5 -17 10
0 6 -8 10 -17 10 -15 0 -14 -3 5 -22z"/>
<path d="M1197 2451 c-3 -12 -1 -24 4 -27 13 -8 24 25 12 37 -7 7 -12 3 -16
-10z"/>
<path d="M908 2455 c-6 -7 40 -146 53 -160 11 -10 8 10 -12 85 -11 42 -33 83
-41 75z"/>
<path d="M2560 2416 c-15 -39 -12 -46 6 -13 9 16 13 31 10 34 -3 3 -10 -6 -16
-21z"/>
<path d="M655 2388 c-22 -24 -51 -60 -65 -81 -14 -20 -29 -37 -33 -37 -5 0 -6
-4 -2 -10 11 -17 36 2 71 57 19 30 39 51 44 48 10 -6 33 41 28 57 -2 4 -21
-11 -43 -34z"/>
<path d="M2432 2419 c2 -7 10 -15 17 -17 8 -3 12 1 9 9 -2 7 -10 15 -17 17 -8
3 -12 -1 -9 -9z"/>
<path d="M2911 2390 c-1 -20 27 -55 36 -46 5 4 1 13 -8 19 -9 7 -18 19 -22 27
-5 13 -5 13 -6 0z"/>
<path d="M2517 2347 c-9 -11 -17 -30 -17 -42 1 -14 6 -9 20 19 23 46 22 54 -3
23z"/>
<path d="M1096 2245 c-19 -14 -19 -15 7 -16 31 -2 35 -3 60 -13 9 -5 17 -12
17 -17 0 -6 -9 -5 -21 1 -11 7 -23 9 -27 6 -3 -3 0 -6 6 -6 6 0 17 -6 24 -13
7 -7 25 -18 41 -24 23 -11 27 -10 27 2 0 8 -7 15 -16 15 -8 0 -20 14 -25 30
-7 19 -18 30 -29 30 -11 0 -22 5 -25 10 -8 13 -16 12 -39 -5z"/>
<path d="M2434 2237 c-14 -17 -27 -48 -30 -76 -3 -22 -2 -22 11 -5 8 11 15 26
15 34 0 9 9 22 19 30 11 7 18 17 15 22 -7 11 -17 9 -30 -5z"/>
<path d="M505 2200 c-10 -11 -27 -19 -38 -18 -21 3 -46 -26 -34 -39 5 -4 11
-3 15 3 4 6 16 14 28 18 23 7 73 56 57 56 -5 0 -18 -9 -28 -20z"/>
<path d="M2156 2189 c-11 -10 -30 -19 -42 -19 -13 0 -26 -4 -29 -10 -13 -21
37 -9 83 20 32 20 41 29 27 29 -11 0 -29 -9 -39 -20z"/>
<path d="M497 2153 c-11 -10 -8 -35 3 -28 6 4 8 11 5 16 -8 12 12 12 36 -1 11
-6 19 -7 19 -1 0 17 -50 28 -63 14z"/>
<path d="M432 2096 c2 -15 7 -27 13 -26 15 0 12 43 -3 48 -10 3 -13 -4 -10
-22z"/>
<path d="M1262 2077 c0 -41 2 -45 13 -30 12 17 14 16 20 -10 4 -15 11 -27 17
-27 12 0 -1 42 -18 55 -7 5 -18 21 -23 35 -8 21 -9 18 -9 -23z"/>
<path d="M611 2034 c-12 -15 -21 -30 -21 -35 0 -4 -3 -15 -7 -25 -4 -11 -3
-15 4 -11 6 4 14 19 17 33 4 15 17 35 29 45 12 10 17 18 10 19 -6 0 -21 -12
-32 -26z"/>
<path d="M416 2021 c-4 -5 -2 -13 4 -16 8 -5 8 -11 0 -20 -8 -9 -7 -14 2 -18
8 -3 14 6 15 24 2 29 -11 47 -21 30z"/>
<path d="M241 2006 c-8 -9 -11 -19 -7 -23 9 -9 29 13 24 27 -2 8 -8 7 -17 -4z"/>
<path d="M2143 2010 c-34 -14 -28 -21 7 -9 17 6 30 13 30 15 0 6 -12 4 -37 -6z"/>
<path d="M370 1985 c-8 -20 -16 -25 -45 -25 -44 0 -126 -37 -119 -54 3 -7 -2
-19 -11 -26 -8 -7 -15 -17 -15 -23 0 -5 9 -2 20 8 11 10 20 24 20 31 0 18 48
42 101 50 52 8 68 19 66 45 -2 25 -6 24 -17 -6z"/>
<path d="M2061 1978 c-13 -22 -13 -22 5 -7 10 9 26 19 34 22 11 4 9 6 -5 6
-11 1 -26 -9 -34 -21z"/>
<path d="M1270 1970 c0 -19 3 -21 12 -12 9 9 9 15 0 24 -9 9 -12 7 -12 -12z"/>
<path d="M1900 1951 c0 -6 3 -11 8 -11 4 0 12 -10 17 -22 6 -12 16 -24 23 -26
8 -3 7 7 -6 29 -18 33 -42 50 -42 30z"/>
<path d="M1992 1893 c-29 -31 -55 -67 -59 -82 -6 -26 -24 -46 -66 -74 -12 -8
-18 -19 -14 -23 5 -5 16 0 26 12 9 12 27 26 39 33 13 7 22 21 22 36 0 15 17
42 45 71 38 38 74 87 63 83 -2 0 -27 -26 -56 -56z"/>
<path d="M530 1917 c-38 -20 -80 -65 -80 -86 0 -29 -12 -32 -32 -9 -10 12 -21
19 -24 15 -3 -3 4 -15 16 -27 19 -19 20 -23 7 -38 -31 -35 -34 -108 -3 -80 7
7 11 21 8 31 -3 11 8 34 27 57 17 21 28 45 25 53 -3 8 2 17 12 21 14 5 15 4 4
-9 -8 -10 -9 -15 -1 -15 6 0 12 6 12 13 1 6 2 18 3 25 0 7 15 23 31 37 34 27
32 31 -5 12z"/>
<path d="M161 1901 c-6 -11 -11 -27 -11 -35 0 -9 -6 -16 -12 -16 -10 0 -9 -3
1 -9 11 -7 11 -9 0 -13 -7 -2 -9 -9 -5 -17 6 -9 11 -8 20 5 12 15 13 15 19 1
7 -19 -19 -37 -52 -37 -10 0 -22 -6 -24 -12 -4 -9 -6 -8 -6 3 -1 8 4 20 11 27
7 7 8 12 2 12 -17 0 -33 -22 -27 -37 3 -7 -1 -21 -9 -31 -34 -39 -68 -116 -67
-151 0 -28 2 -32 8 -16 5 11 6 23 4 28 -2 4 1 6 8 5 6 -2 14 3 16 10 3 6 -3
12 -12 12 -9 0 -13 5 -10 11 4 6 10 8 13 5 9 -9 42 25 42 43 0 9 14 31 31 49
44 47 119 42 119 -8 0 -10 8 -16 20 -15 23 2 40 15 19 15 -16 0 -80 91 -91
129 -5 17 -2 28 9 36 11 8 12 14 5 19 -6 3 -16 -2 -21 -13z"/>
<path d="M1806 1832 c-4 -13 -5 -26 -2 -29 10 -11 18 4 14 29 l-4 23 -8 -23z"/>
<path d="M1765 1781 c-3 -10 -3 -25 0 -33 8 -20 -30 -52 -55 -45 -13 3 -20 0
-20 -9 0 -8 -4 -14 -9 -14 -5 0 -18 -17 -28 -37 -11 -21 -24 -38 -29 -38 -17
0 -34 -16 -34 -31 0 -30 57 14 82 63 23 48 28 50 77 39 29 -6 94 22 84 37 -4
6 -10 4 -17 -5 -11 -14 -36 -22 -60 -19 -5 0 -2 9 6 19 9 9 18 34 20 55 4 39
-6 51 -17 18z"/>
<path d="M2976 1745 c-3 -10 -19 -15 -45 -15 -35 0 -41 -3 -47 -25 -5 -21 -11
-24 -28 -19 -19 6 -19 5 4 -17 l25 -24 11 35 c9 29 16 35 40 36 58 2 64 4 64
24 0 23 -15 27 -24 5z"/>
<path d="M2764 1738 c-3 -5 -1 -15 5 -21 9 -9 10 -8 5 7 -6 16 -5 17 15 7 12
-7 27 -11 32 -9 5 2 -4 8 -21 15 -19 7 -32 8 -36 1z"/>
<path d="M1214 1645 c3 -32 11 -64 17 -70 8 -7 10 -4 6 10 -4 11 -8 40 -11 64
-3 24 -8 46 -12 50 -3 3 -4 -21 0 -54z"/>
<path d="M140 1665 c0 -18 7 -28 25 -35 14 -5 25 -14 25 -20 0 -5 4 -10 10
-10 13 0 1 31 -22 53 -10 10 -18 22 -18 27 0 6 -4 10 -10 10 -5 0 -10 -11 -10
-25z"/>
<path d="M2840 1643 c0 -5 6 -18 14 -29 9 -13 11 -25 6 -35 -8 -11 -12 -11
-24 6 -8 11 -18 16 -23 12 -4 -5 0 -14 10 -21 13 -10 15 -21 11 -44 -6 -30 -9
-32 -48 -29 -36 2 -66 -10 -66 -27 0 -11 39 -6 46 5 4 7 21 9 45 5 37 -6 39
-5 39 22 0 15 7 37 15 49 12 17 13 31 7 55 -7 28 -32 53 -32 31z"/>
<path d="M267 1628 c-3 -8 6 -14 24 -15 16 -1 29 3 29 8 0 6 -7 9 -15 5 -8 -3
-15 -1 -15 4 0 14 -17 12 -23 -2z"/>
<path d="M1543 1517 c-23 -33 -32 -84 -13 -72 6 3 10 14 10 24 0 10 11 28 25
41 27 26 32 40 13 40 -7 0 -23 -15 -35 -33z"/>
<path d="M1320 1485 c43 -45 49 -45 13 0 -15 19 -32 35 -37 35 -6 0 5 -16 24
-35z"/>
<path d="M35 1474 c9 -9 19 -13 23 -10 3 4 0 11 -8 16 -24 15 -33 11 -15 -6z"/>
<path d="M2653 1423 c-24 -26 -43 -52 -43 -60 0 -7 -3 -12 -7 -12 -48 8 -65
-22 -33 -56 21 -22 21 -25 6 -31 -20 -8 -33 3 -38 30 -1 11 -9 21 -15 24 -21
6 -15 -11 15 -48 20 -23 34 -31 45 -27 21 8 23 56 2 63 -8 4 -15 12 -15 19 0
10 11 12 42 7 40 -5 42 -4 26 11 -15 16 -14 20 28 63 42 44 54 65 37 64 -5 -1
-27 -22 -50 -47z"/>
<path d="M1357 1421 c-3 -14 0 -21 9 -21 16 0 18 9 5 28 -6 10 -10 9 -14 -7z"/>
<path d="M1441 1426 c-19 -23 2 -26 29 -5 24 18 24 19 4 19 -12 0 -27 -6 -33
-14z"/>
<path d="M1506 1421 c-7 -10 59 -71 75 -71 6 0 9 7 5 15 -7 18 15 20 32 3 9
-9 15 -9 23 -1 9 9 3 14 -22 21 -25 6 -38 5 -48 -6 -12 -12 -16 -9 -27 17 -13
31 -28 39 -38 22z"/>
<path d="M1662 1368 c1 -35 -2 -73 -6 -86 -6 -17 -3 -24 11 -29 10 -3 33 -17
51 -30 25 -19 32 -21 32 -9 0 9 -7 16 -15 16 -7 0 -18 6 -22 13 -4 8 -16 16
-26 20 -13 5 -16 13 -11 32 3 13 6 37 5 52 0 16 0 38 -1 50 0 12 -5 25 -10 28
-7 4 -10 -17 -8 -57z"/>
<path d="M1412 1324 c2 -38 6 -73 10 -79 3 -5 6 -25 6 -44 0 -18 3 -36 6 -39
6 -6 11 71 7 98 -2 8 -4 40 -6 70 -2 30 -8 56 -15 58 -8 3 -10 -16 -8 -64z"/>
<path d="M1492 1315 c-17 -19 -1 -19 24 0 14 11 15 14 4 14 -8 0 -21 -6 -28
-14z"/>
<path d="M1551 1284 c-1 -19 6 -37 16 -45 14 -12 16 -12 8 0 -4 8 -12 28 -16
45 l-7 31 -1 -31z"/>
<path d="M2467 1269 c-9 -6 -15 -14 -12 -19 3 -5 0 -12 -5 -15 -8 -5 -6 -13 6
-26 19 -21 18 -24 -13 -33 -23 -7 -32 7 -13 19 6 4 7 11 4 17 -10 16 -28 -22
-30 -61 l-1 -34 21 25 c12 14 31 29 44 33 16 4 20 10 14 18 -13 16 -9 52 7 71
15 18 5 20 -22 5z"/>
<path d="M1944 1229 c-4 -7 -3 -14 4 -17 6 -2 28 -26 48 -53 20 -28 39 -47 42
-44 3 3 -4 15 -15 28 -11 12 -32 39 -46 60 -17 27 -27 35 -33 26z"/>
<path d="M1775 1170 c9 -17 13 -35 10 -40 -3 -5 -1 -11 5 -15 6 -4 10 6 10 24
0 17 -4 31 -10 31 -5 0 -10 7 -10 15 0 8 -5 15 -10 15 -6 0 -4 -13 5 -30z"/>
<path d="M1875 1173 c10 -9 25 -36 35 -59 19 -44 40 -65 40 -40 0 8 -6 19 -13
23 -7 4 -19 24 -27 43 -14 34 -27 50 -43 50 -5 0 -1 -8 8 -17z"/>
<path d="M608 1159 c-10 -10 -13 -21 -8 -24 5 -3 14 4 20 16 15 27 10 30 -12
8z"/>
<path d="M2990 1172 c0 -4 -14 -22 -30 -41 -22 -23 -38 -32 -58 -31 -44 3 -62
1 -62 -9 0 -4 23 -7 52 -6 46 2 56 7 80 36 25 30 36 59 23 59 -3 0 -5 -3 -5
-8z"/>
<path d="M500 1130 c0 -5 -7 -10 -15 -10 -8 0 -15 -4 -15 -10 0 -15 19 -12 36
4 16 17 18 26 4 26 -5 0 -10 -4 -10 -10z"/>
<path d="M1413 1107 c-13 -18 -23 -37 -23 -41 0 -5 -10 -21 -22 -36 -52 -64
-60 -76 -71 -97 -5 -13 -14 -23 -19 -23 -4 0 -8 -6 -8 -14 0 -7 -18 -34 -40
-59 -22 -25 -39 -49 -38 -54 5 -21 -16 -52 -42 -61 -30 -11 -110 -85 -110
-102 0 -5 7 -10 15 -10 8 0 15 7 15 15 0 20 44 61 88 82 23 11 40 29 52 58 10
23 33 57 52 76 19 19 33 41 31 50 -2 9 3 22 12 29 8 7 15 17 15 22 0 5 6 15
13 23 29 31 49 59 69 97 12 23 24 35 28 28 4 -6 7 3 7 20 0 16 -1 30 -1 30 -1
0 -11 -15 -23 -33z"/>
<path d="M1537 1112 c-10 -10 -17 -22 -17 -26 0 -9 49 27 50 37 0 13 -17 7
-33 -11z"/>
<path d="M530 1108 c0 -18 27 -44 37 -34 4 4 -3 16 -15 29 -18 17 -22 18 -22
5z"/>
<path d="M2358 1093 c-2 -21 -9 -29 -28 -31 -14 -2 -30 -8 -37 -14 -8 -6 -14
-4 -21 8 -8 14 -13 14 -33 4 -13 -7 -27 -19 -31 -25 -7 -12 -37 -13 -100 -2
-16 3 -28 4 -28 1 0 -8 58 -33 92 -39 32 -6 38 -4 53 19 14 20 22 24 46 19 18
-3 29 -1 29 6 0 6 10 11 23 11 24 0 67 37 67 58 0 25 -29 11 -32 -15z"/>
<path d="M1675 1049 c-4 -6 -5 -13 -2 -16 7 -7 27 6 27 18 0 12 -17 12 -25 -2z"/>
<path d="M2793 1048 c-24 -31 -25 -40 -8 -36 11 2 19 13 20 26 2 26 1 26 -12
10z"/>
<path d="M1628 1016 c-10 -7 -15 -16 -11 -19 11 -12 21 -7 26 13 3 11 4 20 4
20 -1 0 -10 -7 -19 -14z"/>
<path d="M2743 967 c-16 -18 -37 -36 -47 -40 -9 -4 -14 -11 -11 -17 3 -5 -1
-20 -9 -32 -9 -12 -16 -34 -16 -48 0 -14 -7 -36 -17 -49 -9 -13 -17 -33 -18
-45 -5 -37 -36 -135 -46 -141 -5 -4 -9 -14 -9 -23 0 -14 2 -14 13 -2 22 23 57
120 57 154 0 17 9 45 20 61 11 17 20 40 20 53 0 27 44 98 79 129 14 12 23 25
19 28 -3 3 -19 -9 -35 -28z"/>
<path d="M1650 975 c-10 -13 -9 -15 9 -15 12 0 21 6 21 15 0 8 -4 15 -9 15 -5
0 -14 -7 -21 -15z"/>
<path d="M1936 976 c6 -15 34 -30 34 -18 0 4 -9 13 -20 19 -16 11 -18 10 -14
-1z"/>
<path d="M480 923 c-3 -23 -2 -39 3 -34 5 5 7 24 5 42 -3 33 -4 33 -8 -8z"/>
<path d="M1977 933 c-12 -11 -8 -23 7 -23 8 0 16 7 20 15 5 15 -14 21 -27 8z"/>
<path d="M1336 888 c16 -29 38 -48 56 -48 10 0 18 -4 18 -8 0 -5 7 -17 15 -28
14 -17 14 -16 2 16 -7 19 -20 35 -28 35 -23 1 -41 16 -35 31 4 9 -2 14 -15 14
-13 0 -18 -4 -13 -12z"/>
<path d="M456 855 c-3 -9 -6 -24 -5 -33 0 -9 5 -4 10 12 9 32 6 48 -5 21z"/>
<path d="M1765 790 c-15 -17 -16 -20 -3 -20 9 0 19 7 22 16 10 25 1 27 -19 4z"/>
<path d="M436 713 c-16 -144 -17 -163 -7 -163 6 0 11 12 12 28 0 15 2 62 4
105 5 86 0 102 -9 30z"/>
<path d="M985 620 c-4 -6 -1 -10 5 -10 6 0 8 -4 5 -10 -3 -5 1 -10 9 -10 9 0
16 6 16 14 0 17 -27 29 -35 16z"/>
<path d="M882 587 c-7 -16 -12 -32 -12 -37 0 -4 -20 -29 -44 -53 -31 -33 -40
-47 -30 -51 8 -3 14 -2 14 3 0 5 14 24 30 42 40 44 62 86 57 107 -3 13 -7 10
-15 -11z"/>
<path d="M1030 582 c0 -6 -7 -9 -15 -6 -8 4 -15 1 -15 -4 0 -6 -13 -19 -29
-28 -16 -10 -34 -28 -40 -41 -14 -30 -4 -29 21 3 11 14 27 23 34 20 8 -3 14 1
14 8 0 8 10 20 23 29 12 8 19 18 15 23 -5 4 -8 2 -8 -4z"/>
<path d="M1070 540 c0 -22 3 -40 8 -40 4 0 6 18 4 40 -2 22 -6 40 -8 40 -2 0
-4 -18 -4 -40z"/>
<path d="M2677 563 c-4 -6 2 -22 13 -34 14 -18 19 -20 20 -8 0 22 -25 54 -33
42z"/>
<path d="M707 533 c-10 -9 -8 -33 2 -33 5 0 11 9 14 20 5 20 -3 26 -16 13z"/>
<path d="M408 505 c-6 -30 -3 -43 8 -33 3 4 4 19 2 35 l-3 28 -7 -30z"/>
<path d="M735 470 c-4 -17 -14 -40 -24 -49 -15 -16 -24 -61 -12 -61 3 0 14 20
24 43 10 23 22 49 27 58 4 9 5 22 0 29 -5 8 -10 2 -15 -20z"/>
<path d="M1228 478 c5 -22 9 -22 28 -4 20 20 18 26 -10 24 -17 -2 -22 -7 -18
-20z"/>
<path d="M373 473 c-7 -2 -13 -10 -13 -16 0 -7 -19 -32 -41 -56 -22 -24 -37
-46 -34 -50 4 -3 17 8 31 24 13 17 30 38 38 47 14 16 39 59 34 57 -2 0 -9 -3
-15 -6z"/>
<path d="M2547 423 c-9 -27 -17 -58 -17 -70 0 -13 -4 -23 -10 -23 -18 0 -11
-29 10 -40 21 -11 28 -40 10 -40 -5 0 -10 -6 -10 -14 0 -8 -11 -23 -24 -33
-13 -10 -27 -29 -31 -43 l-7 -25 24 26 c13 15 31 29 41 32 9 4 17 15 17 25 0
58 50 93 81 56 11 -14 10 -19 -8 -33 -11 -10 -23 -26 -27 -37 -7 -21 -53 -70
-101 -109 -16 -13 -27 -26 -24 -29 3 -3 21 8 39 24 19 17 37 30 41 30 4 0 19
20 33 45 20 33 33 45 50 45 21 0 24 6 31 55 5 40 11 55 22 55 13 0 13 3 -2 26
-15 24 -15 29 -1 65 24 58 18 61 -9 5 -17 -34 -22 -53 -15 -61 11 -14 2 -75
-11 -75 -5 0 -18 9 -29 20 -19 19 -22 19 -45 4 -23 -15 -25 -15 -25 0 0 11 -5
14 -12 10 -7 -5 -8 -3 -3 6 4 7 9 27 10 45 1 17 9 43 18 56 18 25 22 49 9 49
-4 0 -16 -21 -25 -47z"/>
<path d="M1133 425 c7 -14 16 -25 20 -25 9 0 -9 36 -22 44 -5 4 -4 -5 2 -19z"/>
<path d="M2320 400 c0 -5 9 -10 19 -10 11 0 29 -12 40 -27 12 -14 25 -23 29
-19 4 4 -8 21 -26 37 -32 29 -62 38 -62 19z"/>
<path d="M637 393 c-23 -4 -26 -7 -16 -19 15 -19 22 -18 37 6 7 11 11 19 10
19 -2 -1 -16 -4 -31 -6z"/>
<path d="M1155 364 c0 -25 15 -46 15 -21 0 8 2 22 5 30 3 7 0 14 -8 14 -7 0
-13 -10 -12 -23z"/>
<path d="M2710 376 c0 -8 7 -16 15 -20 13 -4 14 -2 5 14 -13 23 -20 26 -20 6z"/>
<path d="M819 340 c-9 -9 -22 -19 -30 -22 -7 -2 -9 -9 -5 -17 6 -9 11 -8 22 6
20 26 17 8 -6 -34 -10 -20 -17 -40 -14 -44 7 -11 -36 -149 -46 -149 -5 0 -2
-13 6 -30 19 -38 25 -38 18 -2 -5 23 48 214 83 300 7 17 -9 13 -28 -8z"/>
<path d="M2830 350 c0 -5 9 -14 20 -20 11 -6 20 -7 20 -3 0 5 -9 14 -20 21
-11 7 -20 8 -20 2z"/>
<path d="M247 287 c-14 -24 -33 -49 -41 -57 -9 -7 -16 -18 -16 -24 0 -13 43
36 72 82 11 18 18 35 15 38 -2 3 -16 -15 -30 -39z"/>
<path d="M460 305 c-7 -8 -8 -15 -2 -15 5 0 15 7 22 15 7 8 8 15 2 15 -5 0
-15 -7 -22 -15z"/>
<path d="M1175 299 c10 -35 23 -45 18 -15 -3 15 -10 29 -15 32 -6 4 -7 -2 -3
-17z"/>
<path d="M2870 305 c0 -7 7 -16 50 -65 37 -42 38 -37 4 24 -14 25 -32 46 -40
46 -8 0 -14 -2 -14 -5z"/>
<path d="M420 286 c0 -9 -6 -16 -13 -16 -14 0 -43 -31 -64 -68 -11 -18 -10
-20 2 -16 8 4 15 11 15 17 0 6 18 28 41 48 26 23 37 39 30 43 -6 4 -11 0 -11
-8z"/>
<path d="M640 285 c-8 -9 -10 -27 -6 -46 4 -22 2 -29 -7 -26 -6 2 -20 -9 -29
-24 -13 -21 -27 -29 -62 -34 -25 -4 -44 -11 -41 -15 11 -17 99 11 141 46 l44
35 9 -23 10 -23 0 23 c1 12 -3 22 -9 22 -5 0 -10 9 -10 20 0 24 -15 26 -24 4
-4 -9 -9 -14 -12 -11 -3 3 2 19 11 36 16 32 7 42 -15 16z"/>
<path d="M2355 238 c-2 -7 0 -29 4 -48 l9 -35 1 48 c1 45 -5 60 -14 35z"/>
<path d="M2970 235 c0 -18 19 -40 26 -32 4 4 0 15 -9 24 -9 10 -17 13 -17 8z"/>
<path d="M840 205 c0 -11 -3 -31 -6 -45 -6 -24 -5 -23 10 4 11 19 13 33 6 45
-8 14 -9 14 -10 -4z"/>
<path d="M1117 202 c-21 -23 -22 -52 -3 -52 9 0 12 7 9 19 -2 10 3 25 12 35 9
9 12 16 7 16 -5 0 -16 -8 -25 -18z"/>
<path d="M1180 190 c0 -5 -9 -19 -21 -31 -27 -27 -21 -31 16 -8 17 11 25 19
18 19 -7 0 -10 7 -7 15 4 8 3 15 0 15 -3 0 -6 -4 -6 -10z"/>
<path d="M2620 170 c-6 -11 -10 -31 -8 -43 3 -17 7 -14 16 17 13 45 9 58 -8
26z"/>
<path d="M250 157 c-14 -13 -33 -26 -43 -30 -15 -6 -17 -3 -12 13 4 11 2 20
-4 20 -12 0 -61 -62 -61 -78 0 -6 -8 -16 -19 -21 -13 -7 -17 -18 -14 -36 7
-34 23 -32 23 3 1 25 29 78 31 56 0 -5 4 1 9 12 6 16 15 20 33 17 17 -3 34 4
58 25 19 16 41 32 49 35 11 4 9 6 -5 6 -11 1 -31 -9 -45 -22z"/>
<path d="M710 149 c7 -11 14 -19 16 -16 7 7 -7 37 -17 37 -6 0 -5 -9 1 -21z"/>
<path d="M2443 113 c-7 -3 -13 -14 -13 -26 0 -21 0 -21 16 1 17 25 16 32 -3
25z"/>
<path d="M344 98 c-4 -7 -3 -8 4 -4 7 4 12 2 12 -4 0 -14 -40 -49 -56 -50 -12
0 -64 -39 -53 -40 17 -1 79 38 116 72 l43 38 -30 0 c-16 0 -32 -5 -36 -12z"/>
<path d="M865 100 c-7 -12 12 -12 40 0 18 8 17 9 -7 9 -15 1 -30 -3 -33 -9z"/>
<path d="M176 63 c-10 -13 -15 -29 -13 -36 3 -7 6 -4 6 6 1 9 4 17 9 17 4 0
18 9 32 20 23 18 23 19 4 18 -11 -1 -28 -12 -38 -25z"/>
<path d="M660 80 c0 -13 27 -13 35 0 3 6 -3 10 -14 10 -12 0 -21 -4 -21 -10z"/>
<path d="M2380 33 c0 -5 9 -14 19 -20 16 -10 22 -9 33 4 9 12 9 14 1 9 -7 -4
-22 -2 -33 4 -11 6 -20 7 -20 3z"/>
<path d="M1530 10 c-12 -8 -9 -10 13 -10 15 0 27 5 27 10 0 13 -20 13 -40 0z"/>
</g>
</svg>
